<svg xmlns="http://www.w3.org/2000/svg" width="160" height="40" viewBox="0 0 160 40">
    <path fill="#d5d5d5" d="M30.6 13.8l-.8.7a7.5 7.5 0 0 0-2.4 2.8 7 7 0 0 0-.6 2.2 8.4 8.4 0 0 0 .2 3.2 7.3 7.3 0 0 0 2 3.3 8.2 8.2 0 0 0 2.5 1.7v.2a19.7 19.7 0 0 1-3 5.6 16.2 16.2 0 0 1-1.6 2 6 6 0 0 1-1.7 1.2 4.2 4.2 0 0 1-2.6.3 10.7 10.7 0 0 1-2.1-.7 8.9 8.9 0 0 0-2.3-.6 7 7 0 0 0-1.7 0 11.4 11.4 0 0 0-2.5.8 9.7 9.7 0 0 1-1.8.5 3.8 3.8 0 0 1-2.7-.5A7.7 7.7 0 0 1 7.7 35 22 22 0 0 1 3 27a21.7 21.7 0 0 1-.9-3.8 17.2 17.2 0 0 1-.1-3.3 11.7 11.7 0 0 1 1-4.2 9.3 9.3 0 0 1 2.5-3.2 8.7 8.7 0 0 1 4-2 7 7 0 0 1 1.9 0 7 7 0 0 1 1.6.2l2 .7 1.7.5a1.4 1.4 0 0 0 .9 0l2.4-.8a14 14 0 0 1 2.4-.7 7.7 7.7 0 0 1 2 0 11 11 0 0 1 2.3.5 7.9 7.9 0 0 1 3.8 2.9.5.5 0 0 1 .1 0zM24.2 2v.4a7.3 7.3 0 0 1-1.6 4.9 8.8 8.8 0 0 1-2.7 2.3 5.5 5.5 0 0 1-2.9.7H17a5.8 5.8 0 0 1 0-1A8 8 0 0 1 21.3 3a8.6 8.6 0 0 1 2.2-.8l.7-.1zM140.2 38a2.6 2.6 0 0 1-1.2-.8 2.2 2.2 0 0 1-.5-1.5v-4c0-.3-.1-.4-.4-.4a12 12 0 0 1-1.8 0 2 2 0 0 1-1.5-1.9V15.8h18.3V29a2.1 2.1 0 0 1-1.2 2.1 3.2 3.2 0 0 1-1 .2 8 8 0 0 1-1.1 0c-.2 0-.3 0-.3.3v4a2.3 2.3 0 0 1-.5 1.6 2.5 2.5 0 0 1-1.2.7h-.8a5.7 5.7 0 0 1-.8-.4 2 2 0 0 1-.9-1.7v-4.2c0-.2 0-.3-.3-.3h-2.2c-.2 0-.3 0-.3.3v4.1a2 2 0 0 1-.8 1.8 7 7 0 0 1-.9.4zM149.8 4.7a.4.4 0 0 1 0 .5l-1.3 2.3.1.4A8.7 8.7 0 0 1 152 11a7.9 7.9 0 0 1 1.2 4l-.2.1h-18c-.3 0-.3 0-.3-.3a8 8 0 0 1 2.1-5 8.7 8.7 0 0 1 2.4-2c.2 0 .2 0 0-.2l-1.1-2.3a.4.4 0 0 1 0-.6h.2l.4.6 1 2c.1.2.2.2.4.1a14.7 14.7 0 0 1 2-.5 9.7 9.7 0 0 1 5.3.4c.5.2.5.2.8-.3l1.3-2.3zm-9.3 6.3a.8.8 0 0 0-.8-.8.8.8 0 0 0 0 1.6.8.8 0 0 0 .8-.8zm6.9 0a.8.8 0 1 0 .7-.8.8.8 0 0 0-.7.8zM158 21.8v4.1a2 2 0 0 1-4 .4v-8.6a2.2 2.2 0 0 1 .4-1.5 2.1 2.1 0 0 1 2.8-.3 2 2 0 0 1 .8 1.7v4.2zM134 21.8v4.1a2 2 0 0 1-1.1 2 2 2 0 0 1-2.8-.8 1.9 1.9 0 0 1-.2-.7 4 4 0 0 1 0-.7v-8a2.3 2.3 0 0 1 .6-1.5 2 2 0 0 1 2.9-.1l.1.1a2.3 2.3 0 0 1 .5 1.5v4.1zM95.7 6.8v14.8H78.9V9.3h.7l1.7-.3 1.7-.3 1.9-.2 1.7-.3 2-.3 2-.3 2-.3 2-.2 1-.2zM64.7 11.2L66 11l1.7-.2 1.6-.3 2-.2 2-.3 1.6-.2 1.9-.3h.5v12.2H64.6v-3.1a.8.8 0 0 0 0-.2zM78.9 35.5V23.2h16.8v14.7zM77.3 35.4l-1.8-.3-1.9-.3-1.9-.2-1.9-.3-1.8-.2-1.7-.3-1.6-.2V23h12.7z"/>
</svg>
