<?xml version="1.0" encoding="utf-8"?>
<!-- Generator: Adobe Illustrator 23.0.1, SVG Export Plug-In . SVG Version: 6.00 Build 0)  -->
<svg version="1.1" xmlns="http://www.w3.org/2000/svg" xmlns:xlink="http://www.w3.org/1999/xlink" x="0px" y="0px"
	 viewBox="0 0 1200 400" style="enable-background:new 0 0 1200 400;" xml:space="preserve">
<style type="text/css">
	.st0{display:none;}
	.st1{display:inline;fill:#FFFFFF;}
	.st2{opacity:0.14;}
	.st3{fill:#1B1B1B;}
	.st4{opacity:0.25;fill:#16171B;}
	.st5{fill:#FAAA5D;}
</style>
<g id="background" class="st0">
	<rect x="0.81" y="-3.58" class="st1" width="1200" height="398.3"/>
</g>
<g id="shape">
	<g>
		<g class="st2">
			
				<image style="overflow:visible;" width="1854" height="1629" xlink:href="9C60D63A.png"  transform="matrix(0.24 0 0 0.24 364.8 30.96)">
			</image>
		</g>
		<g>
			<g>
				<path class="st3" d="M484.42,318.11c-0.29-0.66-0.53-1.36-0.72-2.11c-2.59-10.33-1.33-20.1,3.17-29.66
					c4.12-8.76,8.9-17.09,14.7-24.83c6.6-8.8,13.12-17.67,19.97-26.29c5.84-7.34,12.1-14.36,18.19-21.52
					c6.69-7.87,13.56-15.61,20.05-23.64c8.65-10.71,17.25-21.49,25.44-32.54c8.18-11.03,15.42-22.71,20.89-35.35
					c4.75-10.98,8.06-22.3,6.93-34.49c-0.02-0.24,0-0.49-0.01-0.89c11.05-0.94,21.92-1.27,32.98-0.55
					c-0.06,3.72-0.03,7.27-0.17,10.82c-0.37,9.58-0.68,19.17-1.23,28.74c-0.59,9.88-1.31,19.76-2.19,29.62
					c-0.95,10.66-1.87,21.33-3.3,31.93c-2.38,17.64-4.78,35.29-7.89,52.81c-3.11,17.52-6.82,34.95-10.78,52.31
					c-3.63,15.89-8.09,31.6-13.95,46.83c-3.81,9.87-8.4,19.43-12.57,29.16c-0.28,0.65-0.62,1.13-1.03,1.46
					c1.9,0.22,3.81,0.39,5.72,0.55c7.44-11.32,12.88-23.21,17.42-35.48c4.37-11.8,8.38-23.76,11.95-35.82
					c3.4-11.46,6.28-23.1,8.95-34.77c2.89-12.64,5.55-25.34,7.79-38.11c2.38-13.57,4.46-27.22,6.09-40.9
					c1.95-16.24,3.72-32.53,4.78-48.84c1.01-15.69,1.01-31.44,1.46-47.16c0.02-0.68,0.01-1.37,0.02-2.11
					c9.41,1.02,18.59,2.69,27.62,5.13c1.69,0.46,3.36,1,5.07,1.41c0.97,0.23,1.22,0.73,1.3,1.69c0.5,6.36,0.58,12.81,1.78,19.05
					c1.66,8.65,3.79,17.25,6.44,25.65c3.07,9.72,6.83,19.23,10.49,28.76c2.6,6.77,5.69,13.36,8.3,20.14
					c5.02,13.03,10.02,26.07,14.72,39.21c4.76,13.27,9.01,26.7,11.37,40.65c1.72,10.12,2.33,20.31,1.16,30.52
					c-0.79,6.87-3.31,13.24-7,19.1c-2.08,3.29-4.15,6.66-6.67,9.59c5.17-4.31,10.03-8.87,14.61-13.63c1.23-3.02,2.41-5.9,3.61-8.76
					c2.64-6.3,3.34-12.95,3.54-19.68c0.4-13.81-2.4-27.15-5.71-40.43c-3.47-13.93-7.68-27.64-12.66-41.09
					c-4.39-11.86-9.28-23.53-13.75-35.37c-4.16-11-8.26-22.04-12.05-33.18c-3.98-11.72-6.62-23.76-7.25-36.17
					c-0.03-0.61,0-1.22,0-2.14c3.04,1.19,5.85,2.21,8.6,3.38c12.64,5.39,24.6,12.01,35.7,20.15c10.45,7.67,19.95,16.4,28.08,26.49
					c4.04,5,7.85,10.25,11.24,15.71c4.79,7.72,8.82,15.89,11.49,24.62c0.13,0.42,0.23,0.84,0.32,1.26
					c0.09-7.02-0.22-14.05-0.94-21.07c-2.37-4.75-4.66-9.54-7.29-14.15c-2.33-4.07-5.05-7.94-7.84-11.71
					c-6.48-8.73-13.92-16.61-22.16-23.69c-7.65-6.57-15.86-12.37-24.53-17.56c-8.52-5.11-17.43-9.32-26.58-13.11
					c-1.73-0.72-3.52-1.31-5.46-2.03c1.54-9.14,3.62-17.89,10.09-24.8c4.78-5.11,10.85-7.63,17.8-7.57
					c3.54,0.03,7.21,0.3,10.55,1.32c0.16,0.05,0.31,0.12,0.47,0.18c-3.06-2.98-6.22-5.82-9.45-8.55c-3.71,0.12-7.43,0.05-11.03,0.65
					c-7.24,1.2-13.16,4.98-17.91,10.58c-5.76,6.8-8.64,14.88-10.58,23.4c-0.1,0.42-0.23,0.83-0.23,0.82
					c-11.82-2.38-23.53-4.74-35.6-7.17c-1.03-22.84-3.44-45.95-10.42-68.56c-2.2-0.4-4.4-0.76-6.62-1.08
					c0.19,0.34,0.33,0.74,0.41,1.22c1.14,7.23,2.73,14.41,3.46,21.68c1.08,10.65,1.66,21.35,2.29,32.04
					c0.28,4.73,0.18,9.48,0.25,14.3c-4.34-0.11-8.53-0.4-12.7-0.26c-7.26,0.23-14.5,0.7-21.75,1.14c-1.16,0.07-1.69-0.14-2.18-1.33
					c-2.98-7.27-7.3-13.68-12.68-19.4c-12.74-13.53-28.29-21.94-46.48-25.56c-9.51-1.89-19.05-1.96-28.6-0.34
					c-0.68,0.12-1.35,0.27-2.02,0.42c-3.21,1.91-6.38,3.91-9.5,6.03c-1.13,0.76-2.24,1.55-3.35,2.34c2.42-0.74,4.97-1.08,7.53-1.4
					c9.73-1.2,19.41-0.63,28.98,1.25c10.45,2.05,20.37,5.61,29.61,11.01c6.93,4.05,13.16,8.94,18.34,15.07
					c3.32,3.93,6.07,8.27,8.27,13.27c-3.57,0.65-6.86,1.08-10.07,1.87c-9.24,2.27-18.49,4.46-27.63,7.09
					c-12.73,3.66-24.99,8.69-36.8,14.62c-10.29,5.17-20.42,10.73-30.21,16.78c-9.69,5.98-19.11,12.48-28.21,19.33
					c-8.29,6.24-16.06,13.2-23.93,19.98c-4.08,3.51-7.89,7.32-11.83,11c-0.04,0.03-0.07,0.06-0.11,0.09
					c-0.35,3.26-0.62,6.53-0.8,9.82c0.26-0.33,0.57-0.64,0.93-0.95c8.68-7.1,17.05-14.61,25.98-21.37
					c10.44-7.9,21.21-15.38,32.11-22.64c7.34-4.89,15.01-9.34,22.76-13.56c7.14-3.88,14.46-7.53,21.96-10.67
					c9.75-4.09,19.65-7.86,29.68-11.22c12.42-4.17,25.24-6.85,38.23-8.69c0.24-0.03,0.49-0.02,0.94-0.04
					c0.68,4.55,0.2,8.91-0.57,13.23c-1.53,8.67-5.06,16.64-9.05,24.39c-5.43,10.54-11.83,20.52-18.97,29.97
					c-9.39,12.43-19.11,24.63-28.86,36.78c-8.66,10.79-17.71,21.27-26.29,32.13c-7.11,8.98-14.05,18.12-20.54,27.55
					c-4.88,7.09-9.05,14.69-13.33,22.19c-3.95,6.94-6.87,14.31-8.23,22.25c-0.75,4.37-0.77,8.73-0.1,13.1
					c0.02,0.07,0.03,0.15,0.04,0.22C479.19,312.78,481.77,315.49,484.42,318.11z"/>
				<path class="st4" d="M731.9,75.74l-1.73,1.75c1.19,78.76-44.64,150.92-116.75,196.34c-72.1-45.41-117.94-117.58-116.74-196.34
					l-1.73-1.75c-65.33,65.33-65.33,171.25,0,236.57c32.39,32.4,74.76,48.72,117.21,48.98c0.43,0,0.87,0.01,1.27,0.01
					c0.4,0,0.81-0.01,1.22-0.01c42.47-0.26,84.85-16.57,117.24-48.98C797.23,246.99,797.23,141.07,731.9,75.74z"/>
			</g>
			<g>
				<path class="st3" d="M482.47,54.26l1.94,1.94C482.46,183.81,591.47,295.88,740,323.22c-73.07,67.08-186.72,65.23-257.53-5.58
					C409.74,244.91,409.74,126.99,482.47,54.26z"/>
				<path class="st5" d="M746.26,55.2l-1.94,1.94c1.95,127.62-107.06,239.69-255.6,267.03c73.07,67.08,186.72,65.23,257.53-5.58
					C818.99,245.85,818.99,127.93,746.26,55.2z"/>
			</g>
		</g>
	</g>
</g>
</svg>
