<?xml version="1.0" encoding="utf-8"?>
<!-- Generator: Adobe Illustrator 23.0.1, SVG Export Plug-In . SVG Version: 6.00 Build 0)  -->
<svg version="1.1" xmlns="http://www.w3.org/2000/svg" xmlns:xlink="http://www.w3.org/1999/xlink" x="0px" y="0px"
	 viewBox="0 0 1603 590" style="enable-background:new 0 0 1603 590;" xml:space="preserve">
<style type="text/css">
	.st0{display:none;}
	.st1{display:inline;fill:#F9FAFE;}
	.st2{opacity:0.02;fill-rule:evenodd;clip-rule:evenodd;fill:#1B1B1B;}
</style>
<g id="Layer_1" class="st0">
	<g id="background">
		<rect x="-3.78" y="2.32" class="st1" width="1604" height="590"/>
	</g>
</g>
<g id="Layer_2">
	<path class="st2" d="M755.32,368.43c268.82,262.15,499.56,553,735.21,839.56c9.14,11.1,18.14,22.3,27.21,33.45
		c7.71,9.49,18.88,16.23,2.57,30.51c-17.71,15.51-24.15,4.07-33.53-7.42c-67.3-82.39-134.5-164.84-202.17-246.92
		c-170.26-206.51-343.27-410.5-532.65-600.14c-27.4-27.45-38.98-19.43-55.71,6.31c-64.07,98.57-68.38,208.08-57.79,319.67
		c26.42,278.36,123.2,537.38,221.09,796.01c2.51,6.65,4.67,13.58,8.22,19.65c9.06,15.46,2.89,20.29-12.24,26.96
		c-17.65,7.78-19.38-2.21-23.66-13.21c-103.23-265.9-201.85-533.4-231.28-819.74c-9.85-95.82-8.37-192.72,28.79-284.76
		c6.38-15.77,14.96-30.64,21.97-46.17c10.26-22.71,48.11-42.63,36.41-61.31c-20.57-32.86-55.78-57.19-86.93-82.55
		c-14.58-11.86-21.26,8.35-28.62,15.57C465.34,398.66,384.22,521.41,322.26,657.13c-82.82,181.44-129.07,372.93-155.77,569.8
		c-1.76,12.93,5.73,34.34-21.81,31.94c-30.37-2.64-17.43-21.63-15.39-36.98c32.01-240.14,92.24-471.66,210.99-685
		c59.76-107.36,133.43-204.3,222.95-288.62c-1.53-3.07-2.18-6.21-4.11-7.98c-58.35-53.31-58.55-53.51-121.74-6.68
		C291.44,341.78,127.51,411.1-46.91,457.36c-11.46,3.04-30.25,17.95-37.33-9.55c-6.82-26.5,13.75-23.06,27.1-26.69
		c178.48-48.33,345.38-120.39,492.93-234.36c27.32-21.1,28.12-30.6-0.25-50.27C368.33,89.87,303.15,40.32,237.2-8.1
		c-10.68-7.84-27.38-11.22-13.93-32.09c13.69-21.24,24.84-7.2,34.94,0.07c67.53,48.64,136.24,95.92,200.78,148.31
		c30.43,24.7,46.66,20.78,72.21-5.38C628.7,3.02,705.18-110.35,762.59-237.18c4.89-10.81,1.46-33.74,28.59-21.46
		c26.08,11.81,10.52,26.54,5.29,38.23C737.39-88.25,658.56,30.64,554.82,132.23c-9.13,8.94-20.99,15.08-31.68,22.61
		c67.25,65.27,67.24,65.25,133.1,15.47C840.25,31.23,1050.81-41.21,1276.18-76.27c36.9-5.74,73.94-10.78,111.09-14.44
		c11.57-1.15,28.99-13.58,33.4,11.83c4.28,24.7-12.43,25.61-28.13,26.82c-91.82,7.03-182.15,23.2-271.16,46.04
		C938.6,40.9,771.36,118.96,624.76,245.15c30.61,28.48,59.49,55.37,88.41,82.23c7.11,6.6,11.69,13.43,24.91,5.8
		c121.04-69.74,250.08-55.44,377.14-27.06c229.22,51.2,439.18,152.79,646.84,259.08c12.18,6.23,20.14,11.71,11.62,27.82
		c-10.74,20.31-22.23,10.64-34.88,4.07c-162.65-84.49-328.05-162.61-503.14-218.45c-102.88-32.83-207.13-58.64-316.08-56.2
		C863.1,323.71,808.46,334.59,755.32,368.43z"/>
</g>
</svg>
