<?xml version="1.0" encoding="utf-8"?>
<!-- Generator: Adobe Illustrator 23.0.1, SVG Export Plug-In . SVG Version: 6.00 Build 0)  -->
<svg version="1.1" xmlns="http://www.w3.org/2000/svg" xmlns:xlink="http://www.w3.org/1999/xlink" x="0px" y="0px"
	 viewBox="0 0 1603 590" style="enable-background:new 0 0 1603 590;" xml:space="preserve">
<style type="text/css">
	.st0{display:none;}
	.st1{display:inline;fill:#F9FAFE;}
	.st2{fill:#F9FAFE;}
	.st3{fill:url(#SVGID_1_);}
	.st4{fill:url(#SVGID_2_);}
	.st5{fill:url(#SVGID_3_);}
	.st6{fill:#1C1C1C;}
</style>
<g id="background" class="st0">
	<rect x="-3.78" y="2.32" class="st1" width="1604" height="590"/>
</g>
<g id="home-bg">
	<g>
		<path class="st2" d="M294.7,367.86c-2.02-2.11-3.03-4.9-3.03-8.39v-172.7c0-3.3,1.05-5.96,3.16-7.97c2.11-2.02,4.9-3.03,8.39-3.03
			h65.17c20.35,0,36.16,4.95,47.44,14.85c11.27,9.9,16.91,23.93,16.91,42.08c0,18.15-5.68,32.27-17.05,42.35
			c-11.37,10.08-27.13,15.13-47.3,15.13h-54.17v69.3c0,3.48-1.01,6.28-3.02,8.39c-2.02,2.11-4.77,3.16-8.25,3.16
			C299.46,371.02,296.71,369.97,294.7,367.86z M366.2,271.47c29.52,0,44.27-12.92,44.27-38.78c0-25.48-14.76-38.22-44.27-38.22
			h-51.98v77H366.2z"/>
		<path class="st2" d="M468.91,368.14c-2.11-1.92-3.16-4.63-3.16-8.11V185.4c0-3.48,1.05-6.19,3.16-8.11
			c2.11-1.92,4.81-2.89,8.11-2.89c3.12,0,5.73,0.96,7.84,2.89c2.11,1.92,3.16,4.63,3.16,8.11v174.63c0,3.48-1.06,6.19-3.16,8.11
			c-2.11,1.92-4.72,2.89-7.84,2.89C473.72,371.02,471.01,370.06,468.91,368.14z"/>
		<path class="st2" d="M634.59,285.22v74.8c0,3.3-0.96,5.96-2.89,7.97c-1.93,2.02-4.54,3.03-7.84,3.03c-3.3,0-5.96-1.01-7.98-3.03
			c-2.02-2.01-3.02-4.67-3.02-7.97v-13.2c-3.48,7.88-8.8,13.98-15.95,18.29c-7.15,4.31-15.4,6.46-24.75,6.46
			c-8.62,0-16.55-1.74-23.79-5.22c-7.24-3.48-12.97-8.34-17.19-14.58c-4.22-6.23-6.32-13.11-6.32-20.63
			c0-10.08,2.56-17.92,7.7-23.51c5.13-5.59,13.57-9.63,25.3-12.1c11.73-2.48,28.05-3.71,48.95-3.71h6.05v-9.08
			c0-11-2.25-19.06-6.74-24.2c-4.49-5.13-11.78-7.7-21.86-7.7c-12.47,0-25.12,3.39-37.95,10.17c-4.95,3.12-8.43,4.67-10.45,4.67
			c-2.2,0-4.04-0.83-5.5-2.47c-1.47-1.65-2.2-3.76-2.2-6.33c0-2.57,0.78-4.81,2.34-6.74c1.56-1.92,4.08-3.89,7.56-5.91
			c6.42-3.67,13.7-6.55,21.86-8.66c8.16-2.11,16.27-3.16,24.34-3.16C617.82,232.43,634.59,250.02,634.59,285.22z M602.28,342.84
			c7.06-7.42,10.59-17,10.59-28.74v-7.98h-4.95c-16.13,0-28.42,0.69-36.85,2.06c-8.43,1.38-14.44,3.67-18.01,6.88
			c-3.58,3.21-5.36,7.93-5.36,14.16c0,7.15,2.61,13.06,7.84,17.74c5.23,4.67,11.78,7.01,19.66,7.01
			C586.19,353.97,595.22,350.26,602.28,342.84z"/>
		<path class="st2" d="M781.44,233.25c2.75,0,5.23,0.92,7.43,2.75c2.2,1.83,3.3,4.13,3.3,6.88c0,1.65-0.37,3.12-1.1,4.4
			l-77.27,166.65c-0.92,2.01-2.25,3.57-3.99,4.67c-1.74,1.1-3.53,1.65-5.36,1.65c-2.75,0-5.18-0.87-7.29-2.61
			c-2.11-1.74-3.16-3.99-3.16-6.74c0-1.47,0.37-2.93,1.1-4.4l19.25-41.52l-54.45-117.7c-0.73-1.28-1.1-2.66-1.1-4.13
			c0-2.75,1.24-5.13,3.71-7.15c2.48-2.01,5.18-3.02,8.11-3.02c1.83,0,3.62,0.55,5.36,1.65c1.74,1.1,3.07,2.66,3.99,4.68
			l45.93,103.13l45.92-102.58C773.83,235.45,777.04,233.25,781.44,233.25z"/>
		<path class="st2" d="M1026.88,286.6c6.14,8.07,9.21,18.15,9.21,30.25c0,17.05-5.6,30.11-16.78,39.19
			c-11.19,9.08-27.04,13.61-47.57,13.61h-69.3c-3.49,0-6.28-1.01-8.39-3.03c-2.11-2.01-3.16-4.67-3.16-7.97V186.77
			c0-3.3,1.05-5.96,3.16-7.97c2.11-2.02,4.9-3.03,8.39-3.03h66.28c19.98,0,35.47,4.4,46.47,13.2c11,8.8,16.5,21.27,16.5,37.4
			c0,10.45-2.71,19.44-8.11,26.95c-5.41,7.52-12.97,13.11-22.69,16.78C1012.07,273.03,1020.73,278.53,1026.88,286.6z M913.16,261.85
			h52.25c14.48,0,25.44-2.93,32.86-8.8c7.42-5.87,11.14-14.39,11.14-25.58c0-22-14.67-33-44-33h-52.25V261.85z M1003.23,342.56
			c7.24-5.59,10.86-14.34,10.86-26.26c0-23.83-14.85-35.75-44.55-35.75h-56.38v70.4h56.38
			C984.75,350.95,995.98,348.16,1003.23,342.56z"/>
		<path class="st2" d="M1177.99,285.22v74.8c0,3.3-0.96,5.96-2.89,7.97c-1.92,2.02-4.54,3.03-7.84,3.03s-5.96-1.01-7.98-3.03
			c-2.02-2.01-3.02-4.67-3.02-7.97v-13.2c-3.49,7.88-8.8,13.98-15.95,18.29c-7.15,4.31-15.4,6.46-24.75,6.46
			c-8.62,0-16.55-1.74-23.79-5.22c-7.25-3.48-12.97-8.34-17.19-14.58c-4.22-6.23-6.33-13.11-6.33-20.63
			c0-10.08,2.57-17.92,7.7-23.51c5.13-5.59,13.56-9.63,25.3-12.1c11.73-2.48,28.05-3.71,48.95-3.71h6.05v-9.08
			c0-11-2.25-19.06-6.74-24.2c-4.5-5.13-11.78-7.7-21.86-7.7c-12.47,0-25.12,3.39-37.95,10.17c-4.95,3.12-8.44,4.67-10.45,4.67
			c-2.2,0-4.04-0.83-5.5-2.47c-1.47-1.65-2.2-3.76-2.2-6.33c0-2.57,0.78-4.81,2.34-6.74c1.55-1.92,4.08-3.89,7.56-5.91
			c6.42-3.67,13.7-6.55,21.86-8.66c8.16-2.11,16.27-3.16,24.34-3.16C1161.21,232.43,1177.99,250.02,1177.99,285.22z M1145.67,342.84
			c7.06-7.42,10.59-17,10.59-28.74v-7.98h-4.95c-16.13,0-28.42,0.69-36.85,2.06c-8.44,1.38-14.44,3.67-18.01,6.88
			c-3.58,3.21-5.36,7.93-5.36,14.16c0,7.15,2.61,13.06,7.84,17.74c5.23,4.67,11.78,7.01,19.66,7.01
			C1129.59,353.97,1138.61,350.26,1145.67,342.84z"/>
		<path class="st2" d="M1221.85,368.14c-2.11-1.92-3.16-4.63-3.16-8.11V185.4c0-3.48,1.05-6.19,3.16-8.11
			c2.11-1.92,4.81-2.89,8.11-2.89c3.12,0,5.73,0.96,7.84,2.89c2.11,1.92,3.16,4.63,3.16,8.11v174.63c0,3.48-1.06,6.19-3.16,8.11
			c-2.11,1.92-4.72,2.89-7.84,2.89C1226.66,371.02,1223.95,370.06,1221.85,368.14z"/>
		<path class="st2" d="M1285.65,368.14c-2.11-1.92-3.16-4.63-3.16-8.11V185.4c0-3.48,1.05-6.19,3.16-8.11
			c2.11-1.92,4.81-2.89,8.11-2.89c3.12,0,5.73,0.96,7.84,2.89c2.11,1.92,3.16,4.63,3.16,8.11v174.63c0,3.48-1.06,6.19-3.16,8.11
			c-2.11,1.92-4.72,2.89-7.84,2.89C1290.46,371.02,1287.75,370.06,1285.65,368.14z"/>
	</g>
	<linearGradient id="SVGID_1_" gradientUnits="userSpaceOnUse" x1="1359.3195" y1="250.0745" x2="1374.3374" y2="250.0745">
		<stop  offset="0" style="stop-color:#FF7E54"/>
		<stop  offset="1" style="stop-color:#F95962"/>
	</linearGradient>
	<circle class="st3" cx="1365.63" cy="250.07" r="8.61"/>
	<linearGradient id="SVGID_2_" gradientUnits="userSpaceOnUse" x1="127.213" y1="470.4893" x2="168.647" y2="470.4893">
		<stop  offset="0" style="stop-color:#FF7E54"/>
		<stop  offset="1" style="stop-color:#F95962"/>
	</linearGradient>
	<circle class="st4" cx="144.62" cy="470.49" r="23.74"/>
	<linearGradient id="SVGID_3_" gradientUnits="userSpaceOnUse" x1="870.1705" y1="48.2979" x2="911.6044" y2="48.2979">
		<stop  offset="0" style="stop-color:#FF7E54"/>
		<stop  offset="1" style="stop-color:#F95962"/>
	</linearGradient>
	<path class="st5" d="M887.57,24.55c-13.11,0-23.74,10.63-23.74,23.74s10.63,23.74,23.74,23.74c13.11,0,23.74-10.63,23.74-23.74
		S900.69,24.55,887.57,24.55z M887.57,67.04c-10.35,0-18.74-8.39-18.74-18.74s8.39-18.74,18.74-18.74
		c10.35,0,18.74,8.39,18.74,18.74S897.93,67.04,887.57,67.04z"/>
	<path class="st6" d="M26.55,48.45c-9.57,0-17.32,7.75-17.32,17.32s7.75,17.32,17.32,17.32c9.57,0,17.32-7.75,17.32-17.32
		S36.12,48.45,26.55,48.45z M26.55,79.44c-7.55,0-13.67-6.12-13.67-13.67S19,52.09,26.55,52.09c7.55,0,13.67,6.12,13.67,13.67
		S34.1,79.44,26.55,79.44z"/>
</g>
</svg>
