<?xml version="1.0" encoding="utf-8"?>
<!-- Generator: Adobe Illustrator 23.0.1, SVG Export Plug-In . SVG Version: 6.00 Build 0)  -->
<svg version="1.1" xmlns="http://www.w3.org/2000/svg" xmlns:xlink="http://www.w3.org/1999/xlink" x="0px" y="0px"
	 width="331.13px" height="329.6px" viewBox="0 0 331.13 329.6" style="enable-background:new 0 0 331.13 329.6;"
	 xml:space="preserve">
<style type="text/css">
	.st0{display:none;}
	.st1{display:inline;fill:#FFFFFF;stroke:#000000;stroke-miterlimit:10;}
	.st2{fill:#A4D4E6;}
</style>
<g id="bg" class="st0">
	<rect x="0.5" y="0.5" class="st1" width="330.13" height="328.6"/>
</g>
<g id="shape">
	<path class="st2" d="M49.88,48.54c-64.17,63.88-64.46,167.67-0.64,231.87c63.93,64.32,167.93,64.55,232.17,0.51
		c64.07-63.86,64.23-167.75,0.35-231.9C217.94-15.09,114.02-15.3,49.88,48.54z M16.03,184.66c-0.42-3.11-0.49-6.27-0.98-9.37
		c-0.53-3.33,1.18-3.47,3.75-3.27c16.9,1.31,33.14,5.25,48.71,11.92c14.8,6.34,28.08,15.04,40.32,25.45
		c2.15,1.83,1.12,2.78-0.26,4.16c-8.53,8.48-17.02,16.99-25.52,25.5s-17.02,16.99-25.49,25.52c-1.42,1.43-2.36,2.26-4.16,0.18
		C32.46,241.58,20.13,214.99,16.03,184.66z M155.04,315.34c-19.43-1.43-37.91-6.37-55.46-14.82c-12.24-5.9-23.28-13.61-33.71-22.26
		c-2.05-1.7-1.81-2.77-0.05-4.49c8.57-8.43,17.04-16.97,25.54-25.48c8.5-8.5,17.02-16.99,25.49-25.53c1.41-1.42,2.37-2.29,4.17-0.21
		c18.96,22.06,31.13,47.28,35.76,76.05c0.72,4.44,0.96,8.96,1.59,13.42C158.78,314.83,157.77,315.54,155.04,315.34z M216.61,225.11
		c15.65,15.65,31.3,31.3,46.96,46.96c3.96,3.96,3.92,3.91-0.34,7.58c-20.44,17.6-44.03,28.57-70.48,33.54
		c-5.78,1.08-11.62,1.65-17.47,2.22c-2.87,0.28-3.63-0.65-3.82-3.49c-1.88-28.06-10.3-54.01-25.4-77.78
		c-4.55-7.16-9.75-13.82-15.26-20.22c-1.83-2.13-1.93-3.25,0.1-5.25c10.82-10.63,21.55-21.34,32.17-32.18
		c2.13-2.18,3.27-1.72,5.17,0.19C184.32,192.87,200.48,208.98,216.61,225.11z M153.03,168.17c-10.28,10.01-20.41,20.17-30.44,30.42
		c-2.36,2.4-3.74,3.12-6.78,0.49c-28.18-24.39-60.94-37.85-98.16-40.22c-3.05-0.19-2.73-1.82-2.61-3.78
		c1.54-23.71,8.33-45.82,20.23-66.37c4.94-8.53,10.9-16.31,17.15-23.9c2.09-2.54,3.11-0.78,4.43,0.54
		c16.14,16.13,32.27,32.27,48.41,48.4c15.94,15.94,31.81,31.96,47.9,47.75C155.96,164.26,155.61,165.67,153.03,168.17z
		 M176.85,14.28c23.1,1.89,44.7,8.54,64.75,20.17c8.53,4.94,16.32,10.89,23.91,17.15c2.09,1.72,1.33,2.71-0.14,4.17
		c-8.64,8.56-17.22,17.18-25.82,25.78c-8.41,8.41-16.85,16.78-25.19,25.25c-1.68,1.71-2.73,2.07-4.49,0
		c-18.68-21.9-30.79-46.86-35.43-75.34c-0.72-4.44-0.94-8.97-1.66-13.41C172.18,14.44,173.82,14.03,176.85,14.28z M114.42,104.35
		C98.76,88.7,83.11,73.04,67.46,57.39c-3.86-3.86-3.8-3.79,0.28-7.31c21.31-18.39,45.97-29.59,73.67-34.18
		c4.97-0.82,10.04-1.08,15.05-1.71c2.31-0.29,3.02,0.52,3.16,2.86c1.74,28.38,10.28,54.57,25.55,78.55
		c4.62,7.26,9.86,14.07,15.54,20.53c1.48,1.68,1.65,2.68-0.02,4.33c-11.08,10.95-22.13,21.93-33.02,33.06
		c-2.42,2.48-3.44,0.62-4.84-0.78C146.69,136.62,130.55,120.48,114.42,104.35z M316.11,174.92c-2,27.73-10.81,53.06-26.63,75.94
		c-2.95,4.27-6.46,8.12-9.47,12.31c-2.6,3.62-3.96,2.96-6.64,0.24c-15.73-15.96-31.63-31.74-47.48-47.59s-31.59-31.79-47.62-47.45
		c-3.11-3.04-2.69-4.51,0.15-7.26c10.31-9.98,20.42-20.16,30.45-30.41c2.2-2.25,3.43-2.73,6.15-0.38
		c28.17,24.36,60.87,37.99,98.09,40.39C316.58,170.93,316.27,172.65,316.11,174.92z M314.45,140.55c0.7,4.31,0.92,8.7,1.63,13
		c0.61,3.68-0.85,4.3-4.21,4.02c-25.67-2.17-49.35-10.07-70.98-24.1c-5.96-3.87-11.42-8.38-17.02-12.74
		c-2.11-1.64-2.3-2.77-0.28-4.75c8.6-8.4,17.05-16.96,25.55-25.47c8.5-8.5,17.03-16.99,25.49-25.53c1.48-1.49,2.43-2.11,4.16-0.09
		C297.66,86.84,309.8,111.93,314.45,140.55z"/>
</g>
</svg>
