<svg xmlns="http://www.w3.org/2000/svg" width="1603" height="590" viewBox="0 0 1603 590">
    <rect fill="none" width="1604" height="484"/>
    <path fill="#F9FAFE" d="M449.943,126.713c14.755,0,28.041,2.155,39.857,6.467s21.893,10.3,30.227,17.965	c8.333,7.665,14.72,16.801,19.159,27.409c4.44,10.607,6.66,22.276,6.66,35.005c0,10.95-1.537,21.079-4.61,30.387	c-3.074,9.308-7.274,18.171-12.604,26.588c-5.327,8.418-11.509,16.562-18.545,24.432c-7.036,7.871-14.516,15.844-22.439,23.919	l-58.402,59.951c7.515-2.189,14.926-3.936,22.233-5.235c7.309-1.299,14.175-1.95,20.596-1.95h55.738	c6.831,0,12.228,1.882,16.189,5.646c3.962,3.765,5.94,8.727,5.94,14.886v36.956H340.104v-20.531c0-3.97,0.819-8.213,2.459-12.729	c1.639-4.518,4.508-8.623,8.606-12.319l86.067-86.846c7.377-7.394,13.798-14.44,19.264-21.147	c5.464-6.707,9.973-13.312,13.523-19.812c3.553-6.502,6.217-13.003,7.992-19.505c1.776-6.501,2.664-13.379,2.664-20.635	c0-11.907-2.835-21.044-8.505-27.408c-5.669-6.364-14.311-9.548-25.922-9.548c-4.782,0-9.154,0.686-13.115,2.054	c-3.962,1.369-7.514,3.217-10.656,5.544c-3.142,2.327-5.841,5.063-8.095,8.212c-2.254,3.147-4.064,6.57-5.431,10.266	c-2.186,6.159-4.952,10.608-8.3,13.346c-3.347,2.737-7.889,4.105-13.627,4.105c-1.366,0-2.835-0.068-4.406-0.205	c-1.57-0.137-3.176-0.342-4.814-0.616l-33.608-5.953c2.187-14.92,6.387-27.923,12.604-39.01	c6.216-11.087,13.935-20.326,23.155-27.717c9.223-7.391,19.775-12.901,31.661-16.528	C423.507,128.527,436.282,126.713,449.943,126.713z M793.803,279.464c0,26.144-2.801,48.796-8.401,67.959	c-5.602,19.162-13.354,35.039-23.259,47.632c-9.904,12.592-21.653,21.969-35.246,28.128c-13.594,6.159-28.314,9.239-44.161,9.239	c-15.848,0-30.499-3.08-43.956-9.239c-13.456-6.159-25.104-15.536-34.938-28.128c-9.836-12.593-17.521-28.47-23.055-47.632	c-5.532-19.163-8.299-41.815-8.299-67.959c0-26.144,2.767-48.795,8.299-67.958c5.533-19.162,13.219-35.04,23.055-47.632	c9.836-12.594,21.482-21.935,34.938-28.025c13.457-6.091,28.108-9.136,43.956-9.136c15.847,0,30.567,3.045,44.161,9.136	c13.593,6.091,25.342,15.432,35.246,28.025c9.904,12.592,17.657,28.47,23.259,47.632	C791.003,230.669,793.803,253.321,793.803,279.464z M728.229,279.464c0-20.668-1.299-37.606-3.896-50.814	c-2.595-13.209-6.045-23.577-10.348-31.104c-4.305-7.528-9.188-12.695-14.652-15.501c-5.465-2.807-10.997-4.209-16.599-4.209	s-11.101,1.402-16.496,4.209c-5.396,2.806-10.178,7.973-14.346,15.501c-4.166,7.527-7.513,17.896-10.041,31.104	c-2.526,13.208-3.791,30.146-3.791,50.814c0,20.805,1.265,37.777,3.791,50.918c2.528,13.141,5.875,23.508,10.041,31.104	c4.168,7.597,8.949,12.798,14.346,15.604c5.396,2.807,10.896,4.209,16.496,4.209c5.602,0,11.134-1.402,16.599-4.209	s10.349-8.008,14.652-15.604c4.303-7.597,7.753-17.964,10.348-31.104C726.93,317.241,728.229,300.269,728.229,279.464z M853.64,383.147h57.38V232.243c0-7.392,0.204-15.125,0.613-23.2L877.82,237.17c-2.187,1.78-4.371,3.046-6.558,3.798	c-2.187,0.753-4.304,1.13-6.354,1.13c-3.552,0-6.729-0.787-9.528-2.361c-2.801-1.573-4.885-3.251-6.25-5.03l-20.082-26.69	l93.035-78.224h52.46v253.354h49.186v45.989H853.64V383.147z M1266.35,129.998v26.689c0,7.528-0.819,13.619-2.46,18.273	c-1.63,4.652-3.21,8.623-4.71,11.908l-104.3,221.325c-2.74,5.885-6.771,10.847-12.09,14.885c-5.33,4.038-12.37,6.058-21.11,6.058	h-46.311l106.561-214.14c2.87-5.887,5.971-11.156,9.319-15.81c3.351-4.653,7-9.103,10.961-13.346h-131.35	c-1.91,0-3.729-0.376-5.431-1.129c-1.71-0.753-3.21-1.779-4.51-3.08c-1.301-1.3-2.36-2.806-3.181-4.516	c-0.819-1.712-1.229-3.457-1.229-5.236v-41.883h209.84V129.998z"/>
    <path fill="none" stroke="#A1A1A1" stroke-linecap="round" stroke-linejoin="round" stroke-miterlimit="1.5" d="M17,47.09	l9.612,5.549v11.099L17,69.287l-9.611-5.55V52.639L17,47.09z"/>
    <path fill="none" stroke="#FC6C5B" stroke-width="2" stroke-linecap="round" stroke-linejoin="round" stroke-miterlimit="1.5" d="M456.18,4.229l13.665,7.891v15.778l-13.665,7.89l-13.665-7.89V12.119L456.18,4.229z"/>
    <linearGradient id="a" gradientUnits="userSpaceOnUse" x1="1407.03" y1="41.334" x2="1408.029" y2="41.334" gradientTransform="matrix(8 11 -11 8 -9458.406 -15610.094)">
        <stop offset="0" stop-color="#ff7e54"/>
        <stop offset="1" stop-color="#f95962"/>
    </linearGradient>
    <path fill="url(#a)" d="M1346.52,194l7.381,4.261v8.522l-7.381,4.26l-7.38-4.26v-8.522L1346.52,194z"/>
</svg>
