<svg xmlns="http://www.w3.org/2000/svg" width="112" height="35" viewBox="0.938 3.5 112 35">
    <path fill="#333438" d="M55.788,15.11c-0.06,0.129-0.16,0.189-0.29,0.189c-0.1,0-0.22-0.07-0.37-0.2c-0.15-0.14-0.35-0.29-0.61-0.45	c-0.26-0.16-0.58-0.32-0.97-0.459c-0.39-0.141-0.86-0.211-1.43-0.211c-0.57,0-1.07,0.08-1.5,0.24c-0.43,0.16-0.79,0.38-1.08,0.66	c-0.29,0.279-0.51,0.6-0.66,0.97s-0.23,0.75-0.23,1.16c0,0.53,0.11,0.96,0.34,1.31c0.22,0.34,0.52,0.641,0.89,0.881	s0.78,0.449,1.25,0.609c0.47,0.17,0.95,0.33,1.44,0.49s0.97,0.34,1.44,0.529c0.47,0.19,0.88,0.44,1.25,0.73s0.66,0.66,0.89,1.08	c0.22,0.43,0.34,0.96,0.34,1.6c0,0.65-0.109,1.271-0.34,1.84c-0.22,0.58-0.55,1.08-0.97,1.5c-0.43,0.431-0.95,0.761-1.56,1.011	c-0.62,0.25-1.32,0.37-2.11,0.37c-1.03,0-1.91-0.18-2.65-0.54c-0.74-0.36-1.39-0.86-1.95-1.49l0.31-0.479	c0.09-0.11,0.19-0.16,0.31-0.16c0.06,0,0.15,0.039,0.25,0.13c0.1,0.09,0.23,0.2,0.38,0.329c0.15,0.131,0.32,0.271,0.53,0.421	c0.21,0.149,0.44,0.29,0.72,0.42c0.27,0.13,0.58,0.239,0.94,0.319c0.35,0.09,0.75,0.131,1.2,0.131c0.62,0,1.17-0.09,1.65-0.28	s0.89-0.44,1.23-0.771c0.33-0.319,0.59-0.709,0.77-1.149c0.18-0.44,0.27-0.92,0.27-1.431c0-0.549-0.11-1-0.34-1.359	s-0.52-0.65-0.89-0.891c-0.37-0.239-0.78-0.439-1.25-0.6c-0.47-0.16-0.94-0.32-1.44-0.47c-0.49-0.149-0.97-0.33-1.44-0.521	c-0.47-0.189-0.88-0.439-1.25-0.729s-0.66-0.67-0.89-1.11c-0.22-0.439-0.34-1-0.34-1.67c0-0.52,0.1-1.02,0.3-1.51	c0.2-0.48,0.49-0.91,0.87-1.28s0.85-0.67,1.42-0.89c0.57-0.221,1.2-0.34,1.92-0.34c0.81,0,1.53,0.13,2.18,0.38	c0.64,0.26,1.23,0.649,1.759,1.18L55.788,15.11z"/>
    <path fill="#333438" d="M73.638,20.999c0,1.201-0.18,2.291-0.54,3.271s-0.87,1.81-1.521,2.51c-0.649,0.69-1.43,1.229-2.34,1.601	c-0.91,0.379-1.92,0.57-3.02,0.57c-1.09,0-2.09-0.191-3-0.57c-0.91-0.381-1.69-0.91-2.34-1.601c-0.65-0.69-1.16-1.53-1.521-2.51	c-0.359-0.979-0.55-2.069-0.55-3.271c0-1.199,0.18-2.279,0.55-3.26c0.36-0.98,0.87-1.81,1.521-2.51c0.649-0.7,1.43-1.23,2.34-1.609	c0.91-0.381,1.91-0.57,3-0.57c1.109,0,2.12,0.189,3.02,0.57c0.91,0.379,1.69,0.909,2.34,1.609c0.65,0.7,1.16,1.54,1.521,2.51	C73.458,18.71,73.638,19.81,73.638,20.999z M72.468,20.999c0-1.09-0.15-2.06-0.45-2.93c-0.3-0.869-0.729-1.6-1.27-2.199	c-0.551-0.601-1.21-1.061-1.98-1.381c-0.77-0.32-1.62-0.48-2.56-0.48c-0.92,0-1.771,0.16-2.53,0.48	c-0.771,0.32-1.43,0.78-1.98,1.381c-0.55,0.6-0.979,1.34-1.29,2.199c-0.31,0.87-0.46,1.84-0.46,2.93s0.15,2.07,0.46,2.931	c0.301,0.86,0.73,1.59,1.29,2.2c0.551,0.6,1.21,1.06,1.98,1.379c0.77,0.311,1.61,0.471,2.53,0.471c0.939,0,1.79-0.16,2.56-0.471	c0.771-0.309,1.43-0.77,1.98-1.379c0.55-0.601,0.97-1.33,1.27-2.2C72.317,23.069,72.468,22.1,72.468,20.999z"/>
    <path fill="#333438" d="M78.088,13.254c0.06,0.031,0.12,0.08,0.189,0.171l10.08,13.489l-0.03-13.699h0.99v15.57h-0.54	c-0.17,0-0.3-0.07-0.41-0.221l-10.119-13.51l0.029,13.73h-0.979v-15.57h0.55C77.947,13.215,78.027,13.234,78.088,13.254z"/>
    <path fill="#333438" d="M95.468,28.785h-1.131v-15.57h1.131V28.785z"/>
    <path fill="#333438" d="M111.808,26.164c0.07,0,0.14,0.031,0.189,0.08l0.44,0.471c-0.32,0.35-0.67,0.65-1.06,0.93	c-0.381,0.28-0.801,0.51-1.25,0.7c-0.451,0.2-0.951,0.351-1.49,0.45c-0.541,0.109-1.131,0.16-1.78,0.16	c-1.08,0-2.069-0.19-2.96-0.57c-0.891-0.381-1.67-0.91-2.311-1.6c-0.64-0.69-1.14-1.531-1.5-2.511	c-0.359-0.979-0.539-2.079-0.539-3.28c0-1.18,0.189-2.26,0.56-3.229c0.37-0.979,0.89-1.81,1.56-2.511	c0.67-0.699,1.471-1.239,2.41-1.629c0.93-0.391,1.971-0.58,3.1-0.58c0.561,0,1.08,0.039,1.551,0.13c0.47,0.079,0.91,0.21,1.311,0.36	c0.409,0.16,0.789,0.35,1.149,0.59c0.36,0.229,0.71,0.51,1.06,0.81l-0.34,0.49c-0.061,0.09-0.15,0.13-0.27,0.13	c-0.07,0-0.15-0.04-0.25-0.12s-0.23-0.17-0.391-0.29c-0.16-0.109-0.35-0.24-0.57-0.37c-0.219-0.14-0.489-0.26-0.799-0.38	c-0.311-0.109-0.66-0.21-1.07-0.279c-0.4-0.08-0.86-0.121-1.381-0.121c-0.949,0-1.81,0.16-2.609,0.49c-0.79,0.33-1.47,0.79-2.05,1.4	c-0.57,0.6-1.021,1.34-1.341,2.199c-0.319,0.86-0.479,1.83-0.479,2.9c0,1.1,0.16,2.08,0.47,2.95c0.32,0.87,0.75,1.601,1.311,2.19	s1.22,1.06,1.98,1.379c0.76,0.32,1.58,0.48,2.469,0.48c0.561,0,1.051-0.04,1.49-0.109c0.44-0.07,0.84-0.181,1.211-0.33	c0.369-0.15,0.709-0.33,1.02-0.541c0.32-0.209,0.63-0.459,0.939-0.75c0.041-0.029,0.07-0.049,0.101-0.069	C111.728,26.175,111.768,26.164,111.808,26.164L111.808,26.164z"/>
    <linearGradient id="a" gradientUnits="userSpaceOnUse" x1="686.723" y1="575.547" x2="694.029" y2="602.262" gradientTransform="translate(-671.9 -563.1)">
        <stop offset="0" stop-color="#fc7c55"/>
        <stop offset=".889" stop-color="#f95b60"/>
        <stop offset="1" stop-color="#f95762"/>
    </linearGradient>
    <path fill="url(#a)" d="M34.565,19.917C30.354,8.87,25.36,3.5,19.273,3.5c-1.065,0-2.165,0.17-3.29,0.511	c-0.077,0.018-0.247,0.043-0.367,0.12c-3.665,1.253-7.373,4.773-10.203,9.683c-2.694,4.68-4.168,9.862-3.955,13.869	C1.987,37.442,11.926,38.5,16.17,38.5c2.123,0,4.382-0.239,6.521-0.69c6.717-1.399,10.493-3.452,12.249-6.667	C36.483,28.312,36.364,24.648,34.565,19.917L34.565,19.917z M15.924,4.531c1.142-0.367,2.276-0.553,3.358-0.553	c1.884,0,3.657,0.545,5.345,1.645c-2.174-1.074-4.271-1.023-6.189-0.528C11.807,6.799,4.433,16.891,2.848,21.051	C4.911,14.01,10.136,6.407,15.924,4.531z M22.598,37.349c-2.114,0.443-4.338,0.674-6.427,0.674c-4.006,0-13.254-0.964-14.175-9.675	c0.392,1.893,1.39,3.486,3.163,4.483c3.793,2.131,8.993,3.861,14.917,4.373c1.108,0.094,2.165,0.094,3.154,0	C23.024,37.255,22.811,37.307,22.598,37.349z M30.636,29.507c-0.008,0.017-0.017,0.043-0.025,0.06v0.009	c-0.034,0.094-0.068,0.179-0.111,0.265v0.008c-0.017,0.034-0.017,0.043-0.017,0.043C23.74,45.754-4.372,27.981,6.53,16.166	c3.887-4.21,12.07-8.506,17.917-7.637C32.938,9.8,32.929,23.531,30.636,29.507z M34.523,30.913c-0.409,0.759-0.955,1.448-1.636,2.08	c1.048-1.561,2.122-4.339,1.432-7.986c-0.571-3.026-1.918-8.55-3.861-12.745c1.287,2.174,2.506,4.783,3.665,7.826	C35.87,24.674,35.998,28.22,34.523,30.913z"/>
</svg>
