<?xml version="1.0" encoding="utf-8"?>
<!-- Generator: Adobe Illustrator 23.0.1, SVG Export Plug-In . SVG Version: 6.00 Build 0)  -->
<svg version="1.1" xmlns="http://www.w3.org/2000/svg" xmlns:xlink="http://www.w3.org/1999/xlink" x="0px" y="0px" width="450px"
	 height="106.38px" viewBox="0 0 450 106.38" style="enable-background:new 0 0 450 106.38;" xml:space="preserve">
<style type="text/css">
	.st0{display:none;}
	.st1{display:inline;fill:#F0EFEF;}
	.st2{fill:#1B1B1B;}
	.st3{opacity:0.1;fill:#1B1B1B;}
	.st4{opacity:0.8;fill:#A3D4E7;}
	.st5{fill:#A3D4E7;}
</style>
<g id="bg" class="st0">
	<rect x="-5.3" y="-1.79" class="st1" width="460.6" height="109.96"/>
</g>
<g id="shape">
	<g>
		<g>
			<path class="st2" d="M16.33,90.47c-0.08-0.19-0.15-0.39-0.21-0.61c-0.75-2.99-0.39-5.81,0.92-8.58c1.19-2.53,2.57-4.94,4.25-7.18
				c1.91-2.55,3.79-5.11,5.77-7.6c1.69-2.12,3.5-4.15,5.26-6.22c1.93-2.28,3.92-4.51,5.8-6.84c2.5-3.1,4.99-6.21,7.36-9.41
				c2.36-3.19,4.46-6.57,6.04-10.22c1.37-3.17,2.33-6.45,2-9.97c-0.01-0.07,0-0.14,0-0.26c3.19-0.27,6.34-0.37,9.54-0.16
				c-0.02,1.08-0.01,2.1-0.05,3.13c-0.11,2.77-0.2,5.54-0.36,8.31c-0.17,2.86-0.38,5.71-0.63,8.57c-0.27,3.08-0.54,6.17-0.96,9.23
				c-0.69,5.1-1.38,10.2-2.28,15.27c-0.9,5.07-1.97,10.11-3.12,15.13c-1.05,4.59-2.34,9.14-4.03,13.54
				c-1.1,2.85-2.43,5.62-3.63,8.43c-0.08,0.19-0.18,0.33-0.3,0.42c0.55,0.06,1.1,0.11,1.65,0.16c2.15-3.27,3.72-6.71,5.04-10.26
				c1.26-3.41,2.42-6.87,3.46-10.36c0.98-3.31,1.81-6.68,2.59-10.05c0.84-3.65,1.61-7.33,2.25-11.02c0.69-3.92,1.29-7.87,1.76-11.83
				c0.56-4.7,1.07-9.41,1.38-14.12c0.29-4.54,0.29-9.09,0.42-13.64c0-0.2,0-0.4,0.01-0.61c2.72,0.29,5.38,0.78,7.99,1.48
				c0.49,0.13,0.97,0.29,1.47,0.41c0.28,0.07,0.35,0.21,0.37,0.49c0.15,1.84,0.17,3.71,0.51,5.51c0.48,2.5,1.1,4.99,1.86,7.42
				c0.89,2.81,1.97,5.56,3.03,8.32c0.75,1.96,1.64,3.86,2.4,5.82c1.45,3.77,2.9,7.54,4.26,11.34c1.38,3.84,2.61,7.72,3.29,11.75
				c0.5,2.93,0.67,5.87,0.33,8.82c-0.23,1.99-0.96,3.83-2.02,5.52c-0.6,0.95-1.2,1.92-1.93,2.77c1.49-1.25,2.9-2.56,4.22-3.94
				c0.36-0.87,0.7-1.7,1.04-2.53c0.76-1.82,0.97-3.74,1.02-5.69c0.12-3.99-0.69-7.85-1.65-11.69c-1-4.03-2.22-7.99-3.66-11.88
				c-1.27-3.43-2.68-6.81-3.98-10.23c-1.2-3.18-2.39-6.37-3.48-9.59c-1.15-3.39-1.91-6.87-2.1-10.46c-0.01-0.18,0-0.35,0-0.62
				c0.88,0.34,1.69,0.64,2.49,0.98c3.66,1.56,7.11,3.47,10.32,5.83c3.02,2.22,5.77,4.74,8.12,7.66c1.17,1.45,2.27,2.96,3.25,4.54
				c1.38,2.23,2.55,4.59,3.32,7.12c0.04,0.12,0.07,0.24,0.09,0.36c0.03-2.03-0.06-4.06-0.27-6.09c-0.69-1.37-1.35-2.76-2.11-4.09
				c-0.67-1.18-1.46-2.29-2.27-3.39c-1.87-2.52-4.02-4.8-6.41-6.85c-2.21-1.9-4.59-3.58-7.09-5.08c-2.46-1.48-5.04-2.7-7.69-3.79
				c-0.5-0.21-1.02-0.38-1.58-0.59c0.44-2.64,1.05-5.17,2.92-7.17c1.38-1.48,3.14-2.21,5.15-2.19c1.02,0.01,2.09,0.09,3.05,0.38
				c0.05,0.01,0.09,0.03,0.14,0.05c-0.89-0.86-1.8-1.68-2.73-2.47c-1.07,0.03-2.15,0.02-3.19,0.19c-2.09,0.35-3.81,1.44-5.18,3.06
				c-1.66,1.96-2.5,4.3-3.06,6.77c-0.03,0.12-0.07,0.24-0.07,0.24c-3.42-0.69-6.8-1.37-10.29-2.07c-0.3-6.61-1-13.29-3.01-19.82
				C62.51,0.2,61.87,0.09,61.23,0c0.05,0.1,0.1,0.21,0.12,0.35c0.33,2.09,0.79,4.17,1,6.27c0.31,3.08,0.48,6.17,0.66,9.26
				c0.08,1.37,0.05,2.74,0.07,4.14c-1.26-0.03-2.47-0.11-3.67-0.08c-2.1,0.07-4.19,0.2-6.29,0.33c-0.34,0.02-0.49-0.04-0.63-0.38
				c-0.86-2.1-2.11-3.96-3.67-5.61c-3.68-3.91-8.18-6.35-13.44-7.39c-2.75-0.55-5.51-0.57-8.27-0.1c-0.2,0.03-0.39,0.08-0.58,0.12
				c-0.93,0.55-1.84,1.13-2.75,1.74c-0.33,0.22-0.65,0.45-0.97,0.68c0.7-0.21,1.44-0.31,2.18-0.41c2.81-0.35,5.61-0.18,8.38,0.36
				c3.02,0.59,5.89,1.62,8.56,3.18c2,1.17,3.8,2.59,5.3,4.36c0.96,1.14,1.76,2.39,2.39,3.84c-1.03,0.19-1.98,0.31-2.91,0.54
				c-2.67,0.66-5.35,1.29-7.99,2.05c-3.68,1.06-7.23,2.51-10.64,4.23c-2.97,1.5-5.9,3.1-8.74,4.85c-2.8,1.73-5.52,3.61-8.16,5.59
				c-2.4,1.81-4.64,3.82-6.92,5.78C3.1,44.72,2,45.83,0.86,46.89c-0.01,0.01-0.02,0.02-0.03,0.03c-0.1,0.94-0.18,1.89-0.23,2.84
				c0.08-0.1,0.16-0.19,0.27-0.27c2.51-2.05,4.93-4.22,7.51-6.18c3.02-2.28,6.13-4.45,9.28-6.55c2.12-1.42,4.34-2.7,6.58-3.92
				c2.07-1.12,4.18-2.18,6.35-3.08c2.82-1.18,5.68-2.27,8.58-3.25c3.59-1.21,7.3-1.98,11.05-2.51c0.07-0.01,0.14-0.01,0.27-0.01
				c0.2,1.32,0.06,2.58-0.16,3.83c-0.44,2.51-1.46,4.81-2.62,7.05c-1.57,3.05-3.42,5.93-5.48,8.66c-2.72,3.6-5.53,7.12-8.35,10.64
				c-2.5,3.12-5.12,6.15-7.6,9.29c-2.06,2.6-4.06,5.24-5.94,7.97c-1.41,2.05-2.62,4.25-3.85,6.42c-1.14,2.01-1.99,4.14-2.38,6.43
				c-0.22,1.26-0.22,2.52-0.03,3.79c0,0.02,0.01,0.04,0.01,0.06C14.82,88.93,15.57,89.71,16.33,90.47z"/>
			<path class="st3" d="M87.9,20.39l-0.5,0.51c0.34,22.77-12.91,43.64-33.76,56.77c-20.85-13.13-34.1-34-33.76-56.77l-0.5-0.51
				c-18.89,18.89-18.89,49.52,0,68.41c9.37,9.37,21.62,14.09,33.89,14.16c0.13,0,0.25,0,0.37,0c0.11,0,0.23,0,0.35,0
				c12.28-0.07,24.54-4.79,33.9-14.16C106.79,69.9,106.79,39.28,87.9,20.39z"/>
			<g>
				<path class="st4" d="M15.77,14.17l0.56,0.56c-0.56,36.9,30.96,69.31,73.91,77.21c-21.13,19.4-53.99,18.86-74.47-1.61
					C-5.26,69.3-5.26,35.2,15.77,14.17z"/>
				<path class="st5" d="M92.05,14.45l-0.56,0.56c0.56,36.9-30.96,69.31-73.91,77.21c21.13,19.4,53.99,18.86,74.47-1.61
					C113.08,69.57,113.08,35.48,92.05,14.45z"/>
			</g>
		</g>
		<g>
			<path class="st2" d="M171.02,35.85c0.39-0.26,0.84-0.4,1.33-0.4c0.63,0,1.18,0.21,1.65,0.62c0.48,0.41,0.72,0.95,0.72,1.6
				c0,0.36-0.07,0.69-0.2,0.99l-10.91,30.52c-0.23,0.56-0.59,0.99-1.09,1.28c-0.49,0.3-1.04,0.44-1.63,0.44
				c-0.56,0-1.09-0.15-1.58-0.44c-0.49-0.3-0.84-0.72-1.04-1.28l-8.99-25.48l-9.19,25.48c-0.2,0.56-0.54,0.99-1.04,1.28
				c-0.49,0.3-1.02,0.44-1.58,0.44c-0.59,0-1.13-0.15-1.61-0.44c-0.48-0.3-0.83-0.72-1.06-1.28l-10.91-30.52
				c-0.13-0.3-0.2-0.63-0.2-0.99c0-0.66,0.25-1.19,0.74-1.6c0.49-0.41,1.09-0.62,1.78-0.62c0.49,0,0.95,0.13,1.36,0.4
				c0.41,0.26,0.72,0.66,0.91,1.19l9.14,26.27l9.28-26.03c0.2-0.56,0.52-0.99,0.96-1.28c0.44-0.3,0.93-0.44,1.46-0.44
				c0.53,0,1,0.16,1.43,0.47c0.43,0.31,0.76,0.75,0.99,1.31l9.09,26.22l9.28-26.52C170.33,36.51,170.63,36.12,171.02,35.85z"/>
			<path class="st2" d="M181.27,69.91c-0.44-0.44-0.67-1.04-0.67-1.8V38.22c0-0.76,0.22-1.36,0.67-1.8
				c0.44-0.44,1.06-0.67,1.85-0.67h18.17c0.76,0,1.34,0.18,1.75,0.54c0.41,0.36,0.62,0.87,0.62,1.53c0,0.66-0.21,1.16-0.62,1.51
				c-0.41,0.35-1,0.52-1.75,0.52h-15.7v10.96h14.72c0.76,0,1.34,0.18,1.75,0.54c0.41,0.36,0.62,0.87,0.62,1.53
				c0,0.66-0.21,1.17-0.62,1.53c-0.41,0.36-1,0.54-1.75,0.54h-14.72v11.51h15.7c1.58,0,2.37,0.68,2.37,2.02
				c0,0.66-0.21,1.17-0.62,1.53c-0.41,0.36-1,0.54-1.75,0.54h-18.17C182.33,70.57,181.71,70.35,181.27,69.91z"/>
			<path class="st2" d="M210.23,70.13c-0.46-0.46-0.69-1.09-0.69-1.88V38.22c0-0.76,0.22-1.36,0.67-1.8
				c0.44-0.44,1.06-0.67,1.85-0.67h11.9c3.69,0,6.55,0.91,8.59,2.72c2.04,1.81,3.06,4.38,3.06,7.7c0,3.29-1.02,5.86-3.06,7.7
				c-2.04,1.84-4.91,2.77-8.59,2.77h-9.33v11.61c0,0.79-0.22,1.42-0.67,1.88c-0.44,0.46-1.08,0.69-1.9,0.69
				C211.3,70.82,210.69,70.59,210.23,70.13z M223.42,52.55c4.87,0,7.31-2.12,7.31-6.37c0-4.21-2.44-6.32-7.31-6.32h-8.79v12.69
				H223.42z"/>
			<path class="st2" d="M242.46,69.93c-0.44-0.43-0.67-1-0.67-1.73V38.08c0-0.76,0.23-1.37,0.69-1.85c0.46-0.48,1.07-0.72,1.83-0.72
				c0.79,0,1.42,0.23,1.88,0.69c0.46,0.46,0.69,1.09,0.69,1.88v28.25h15.01c0.76,0,1.34,0.18,1.75,0.54
				c0.41,0.36,0.62,0.89,0.62,1.58s-0.21,1.22-0.62,1.58c-0.41,0.36-1,0.54-1.75,0.54h-17.63C243.5,70.57,242.9,70.36,242.46,69.93z
				"/>
			<path class="st2" d="M299.28,68.6c0,0.63-0.26,1.15-0.77,1.58c-0.51,0.43-1.08,0.64-1.7,0.64c-0.43,0-0.83-0.12-1.21-0.37
				c-0.38-0.25-0.67-0.6-0.86-1.06l-3.26-7.41H273.4l-3.26,7.41c-0.2,0.46-0.49,0.81-0.89,1.06c-0.4,0.25-0.81,0.37-1.23,0.37
				c-0.66,0-1.24-0.21-1.75-0.64c-0.51-0.43-0.77-0.95-0.77-1.58c0-0.26,0.08-0.59,0.25-0.99l13.93-30.47
				c0.23-0.53,0.6-0.94,1.11-1.23c0.51-0.3,1.04-0.44,1.6-0.44c0.56,0,1.09,0.15,1.61,0.44c0.51,0.3,0.88,0.71,1.11,1.23
				l13.93,30.47C299.19,68,299.28,68.33,299.28,68.6z M275.23,57.93h14.47l-7.26-16.35L275.23,57.93z"/>
			<path class="st2" d="M324.17,35.51c0.59,0,1.13,0.24,1.6,0.72c0.48,0.48,0.72,1.03,0.72,1.65c0,0.59-0.2,1.1-0.59,1.53
				l-11.65,14.52v14.32c0,0.82-0.24,1.46-0.72,1.9c-0.48,0.44-1.1,0.67-1.85,0.67c-0.76,0-1.37-0.22-1.83-0.67
				c-0.46-0.44-0.69-1.08-0.69-1.9V53.93L297.5,39.41c-0.4-0.43-0.59-0.95-0.59-1.58c0-0.63,0.23-1.17,0.69-1.63
				c0.46-0.46,1-0.69,1.63-0.69c0.66,0,1.23,0.3,1.73,0.89l10.77,13.53l10.72-13.53C322.9,35.8,323.48,35.51,324.17,35.51z"/>
			<path class="st2" d="M356.04,55.66c1.1,1.45,1.65,3.26,1.65,5.43c0,3-1.03,5.33-3.09,6.99c-2.06,1.66-4.93,2.49-8.62,2.49H333.4
				c-0.79,0-1.41-0.22-1.85-0.67c-0.44-0.44-0.67-1.04-0.67-1.8V38.22c0-0.76,0.22-1.36,0.67-1.8c0.44-0.44,1.06-0.67,1.85-0.67
				h12.05c3.59,0,6.4,0.8,8.42,2.4c2.02,1.6,3.04,3.83,3.04,6.69c0,1.84-0.49,3.44-1.46,4.79c-0.97,1.35-2.33,2.35-4.07,3.01
				C353.39,53.21,354.94,54.21,356.04,55.66z M335.87,50.82h8.79c4.87,0,7.31-1.84,7.31-5.53c0-1.84-0.6-3.21-1.8-4.1
				c-1.2-0.89-3.04-1.33-5.51-1.33h-8.79V50.82z M351.03,65.09c1.19-0.92,1.78-2.35,1.78-4.3c0-1.98-0.6-3.45-1.8-4.42
				c-1.2-0.97-3.05-1.46-5.56-1.46h-9.58v11.56h9.58C347.99,66.47,349.85,66.01,351.03,65.09z"/>
			<path class="st2" d="M395.13,68.6c0,0.63-0.26,1.15-0.77,1.58c-0.51,0.43-1.08,0.64-1.7,0.64c-0.43,0-0.83-0.12-1.21-0.37
				c-0.38-0.25-0.67-0.6-0.86-1.06l-3.26-7.41h-18.07L366,69.39c-0.2,0.46-0.49,0.81-0.89,1.06c-0.4,0.25-0.81,0.37-1.23,0.37
				c-0.66,0-1.24-0.21-1.75-0.64c-0.51-0.43-0.77-0.95-0.77-1.58c0-0.26,0.08-0.59,0.25-0.99l13.93-30.47
				c0.23-0.53,0.6-0.94,1.11-1.23c0.51-0.3,1.04-0.44,1.6-0.44c0.56,0,1.09,0.15,1.6,0.44c0.51,0.3,0.88,0.71,1.11,1.23l13.93,30.47
				C395.05,68,395.13,68.33,395.13,68.6z M371.08,57.93h14.47l-7.26-16.35L371.08,57.93z"/>
			<path class="st2" d="M401.13,69.93c-0.44-0.43-0.67-1-0.67-1.73V38.08c0-0.76,0.23-1.37,0.69-1.85c0.46-0.48,1.07-0.72,1.83-0.72
				c0.79,0,1.42,0.23,1.88,0.69c0.46,0.46,0.69,1.09,0.69,1.88v28.25h15.01c0.76,0,1.34,0.18,1.75,0.54
				c0.41,0.36,0.62,0.89,0.62,1.58s-0.21,1.22-0.62,1.58c-0.41,0.36-1,0.54-1.75,0.54h-17.63
				C402.18,70.57,401.58,70.36,401.13,69.93z"/>
			<path class="st2" d="M428.2,69.93c-0.44-0.43-0.67-1-0.67-1.73V38.08c0-0.76,0.23-1.37,0.69-1.85c0.46-0.48,1.07-0.72,1.83-0.72
				c0.79,0,1.42,0.23,1.88,0.69c0.46,0.46,0.69,1.09,0.69,1.88v28.25h15.01c0.76,0,1.34,0.18,1.75,0.54
				c0.41,0.36,0.62,0.89,0.62,1.58s-0.21,1.22-0.62,1.58c-0.41,0.36-1,0.54-1.75,0.54H430C429.24,70.57,428.64,70.36,428.2,69.93z"
				/>
		</g>
	</g>
</g>
</svg>
