<?xml version="1.0" encoding="utf-8"?>
<!-- Generator: Adobe Illustrator 23.0.1, SVG Export Plug-In . SVG Version: 6.00 Build 0)  -->
<svg version="1.1" xmlns="http://www.w3.org/2000/svg" xmlns:xlink="http://www.w3.org/1999/xlink" x="0px" y="0px" width="108px"
	 height="26.24px" viewBox="0 0 108 26.24" style="enable-background:new 0 0 108 26.24;" xml:space="preserve">
<style type="text/css">
	.st0{display:none;}
	.st1{display:inline;fill:#FFFFFF;}
	.st2{fill:#1A1A1A;}
	.st3{opacity:0.18;fill:#111118;}
	.st4{fill:#1B1B1B;}
	.st5{opacity:0.25;fill:#16171B;}
	.st6{fill:#FAAA5D;}
</style>
<g id="background" class="st0">
	<rect x="-4.06" y="-5.92" class="st1" width="116" height="40"/>
</g>
<g id="Nunito_regular">
	<g>
		<path class="st2" d="M41.87,8.95c0.08-0.05,0.17-0.08,0.26-0.08c0.13,0,0.23,0.04,0.33,0.11c0.09,0.08,0.14,0.18,0.14,0.3
			c0,0.05-0.01,0.12-0.04,0.19l-2.68,7.55c-0.04,0.11-0.11,0.19-0.2,0.25c-0.09,0.06-0.2,0.09-0.32,0.09
			c-0.11,0-0.21-0.03-0.31-0.09c-0.09-0.06-0.16-0.14-0.2-0.25l-2.32-6.56l-2.35,6.56c-0.04,0.11-0.11,0.19-0.2,0.25
			c-0.09,0.06-0.2,0.09-0.31,0.09c-0.11,0-0.21-0.03-0.31-0.09c-0.09-0.06-0.16-0.14-0.2-0.25l-2.69-7.55
			c-0.02-0.06-0.04-0.12-0.04-0.18c0-0.13,0.05-0.23,0.15-0.31c0.1-0.08,0.21-0.12,0.34-0.12c0.09,0,0.18,0.03,0.27,0.08
			c0.08,0.05,0.14,0.13,0.17,0.23l2.33,6.73l2.37-6.66c0.04-0.12,0.1-0.21,0.19-0.27s0.18-0.09,0.28-0.09s0.2,0.03,0.28,0.09
			c0.09,0.06,0.15,0.15,0.19,0.27l2.33,6.67l2.36-6.75C41.74,9.08,41.79,9,41.87,8.95z"/>
		<path class="st2" d="M44.23,17.17c-0.09-0.09-0.14-0.2-0.14-0.34v-7.4c0-0.14,0.05-0.26,0.14-0.34c0.09-0.09,0.21-0.13,0.36-0.13
			h4.43c0.14,0,0.25,0.04,0.33,0.11c0.08,0.07,0.12,0.17,0.12,0.3s-0.04,0.22-0.12,0.3c-0.08,0.07-0.19,0.11-0.33,0.11h-3.97v2.9
			h3.73c0.14,0,0.25,0.04,0.33,0.11c0.08,0.07,0.12,0.17,0.12,0.3s-0.04,0.23-0.12,0.3c-0.08,0.07-0.19,0.11-0.33,0.11h-3.73v3.03
			h3.97c0.14,0,0.25,0.03,0.33,0.1c0.08,0.07,0.12,0.17,0.12,0.3c0,0.13-0.04,0.23-0.12,0.3c-0.08,0.07-0.19,0.11-0.33,0.11h-4.43
			C44.45,17.3,44.32,17.25,44.23,17.17z"/>
		<path class="st2" d="M51.14,17.22c-0.09-0.09-0.13-0.21-0.13-0.36V9.42c0-0.14,0.05-0.26,0.14-0.34c0.09-0.09,0.21-0.13,0.36-0.13
			h2.81c0.88,0,1.56,0.21,2.04,0.64c0.49,0.43,0.73,1.03,0.73,1.81c0,0.78-0.24,1.39-0.73,1.82c-0.49,0.43-1.17,0.65-2.04,0.65
			h-2.33v2.99c0,0.15-0.04,0.27-0.13,0.36c-0.09,0.09-0.21,0.14-0.36,0.14C51.35,17.36,51.23,17.31,51.14,17.22z M54.22,13.07
			c1.27,0,1.91-0.56,1.91-1.67c0-1.1-0.64-1.65-1.91-1.65h-2.24v3.32H54.22z"/>
		<path class="st2" d="M58.81,17.17c-0.09-0.08-0.14-0.19-0.14-0.33V9.38c0-0.15,0.04-0.27,0.13-0.36c0.09-0.09,0.21-0.14,0.36-0.14
			c0.15,0,0.27,0.05,0.36,0.14c0.09,0.09,0.13,0.21,0.13,0.36v7.08h3.83c0.14,0,0.25,0.04,0.33,0.11c0.08,0.07,0.12,0.17,0.12,0.31
			c0,0.13-0.04,0.24-0.12,0.31c-0.08,0.07-0.19,0.11-0.33,0.11h-4.32C59.02,17.3,58.91,17.26,58.81,17.17z"/>
		<path class="st2" d="M72.16,16.94c0,0.12-0.05,0.22-0.14,0.29c-0.09,0.08-0.2,0.12-0.33,0.12c-0.2,0-0.34-0.09-0.41-0.28
			l-0.84-1.92h-4.47l-0.85,1.92c-0.08,0.19-0.22,0.28-0.41,0.28c-0.13,0-0.24-0.04-0.33-0.12c-0.09-0.08-0.14-0.18-0.14-0.3
			c0-0.06,0.02-0.13,0.05-0.19l3.39-7.53c0.05-0.11,0.12-0.19,0.21-0.25c0.09-0.05,0.2-0.08,0.31-0.08c0.12,0,0.23,0.03,0.32,0.09
			c0.09,0.06,0.17,0.14,0.21,0.24l3.39,7.53C72.14,16.8,72.16,16.87,72.16,16.94z M66.33,14.35h3.75L68.2,10.1L66.33,14.35z"/>
		<path class="st2" d="M78.2,8.9c0.11,0,0.21,0.04,0.3,0.13c0.09,0.09,0.13,0.19,0.13,0.32c0,0.12-0.04,0.22-0.11,0.3l-2.88,3.64
			v3.58c0,0.16-0.05,0.28-0.14,0.37c-0.09,0.09-0.21,0.13-0.35,0.13c-0.14,0-0.26-0.04-0.35-0.13c-0.09-0.09-0.14-0.21-0.14-0.37
			v-3.59l-2.88-3.62c-0.08-0.09-0.12-0.19-0.12-0.3c0-0.13,0.05-0.23,0.14-0.32C71.9,8.94,72,8.9,72.12,8.9
			c0.13,0,0.25,0.06,0.34,0.18l2.7,3.45l2.69-3.45C77.95,8.96,78.06,8.9,78.2,8.9z"/>
		<path class="st2" d="M85.63,13.72c0.27,0.35,0.4,0.78,0.4,1.3c0,0.73-0.24,1.3-0.72,1.69c-0.48,0.39-1.17,0.59-2.05,0.59h-2.99
			c-0.15,0-0.27-0.04-0.36-0.13c-0.09-0.09-0.14-0.2-0.14-0.34v-7.4c0-0.14,0.05-0.26,0.14-0.34c0.09-0.09,0.21-0.13,0.36-0.13h2.86
			c0.86,0,1.53,0.19,2,0.57c0.47,0.38,0.71,0.92,0.71,1.61c0,0.45-0.12,0.84-0.35,1.16c-0.23,0.32-0.56,0.56-0.98,0.72
			C84.99,13.14,85.37,13.37,85.63,13.72z M80.73,12.65h2.25c0.62,0,1.1-0.13,1.42-0.38c0.32-0.25,0.48-0.62,0.48-1.1
			c0-0.95-0.63-1.42-1.9-1.42h-2.25V12.65z M84.61,16.13c0.31-0.24,0.47-0.62,0.47-1.13c0-1.03-0.64-1.54-1.92-1.54h-2.43v3.03h2.43
			C83.82,16.49,84.3,16.37,84.61,16.13z"/>
		<path class="st2" d="M94.93,16.94c0,0.12-0.05,0.22-0.14,0.29c-0.09,0.08-0.2,0.12-0.33,0.12c-0.2,0-0.34-0.09-0.41-0.28
			l-0.84-1.92h-4.46l-0.85,1.92c-0.08,0.19-0.22,0.28-0.41,0.28c-0.13,0-0.24-0.04-0.33-0.12s-0.14-0.18-0.14-0.3
			c0-0.06,0.02-0.13,0.05-0.19l3.39-7.53c0.05-0.11,0.12-0.19,0.21-0.25c0.09-0.05,0.2-0.08,0.31-0.08c0.12,0,0.22,0.03,0.32,0.09
			c0.1,0.06,0.17,0.14,0.21,0.24l3.39,7.53C94.92,16.8,94.93,16.87,94.93,16.94z M89.11,14.35h3.76l-1.88-4.25L89.11,14.35z"/>
		<path class="st2" d="M96.47,17.17c-0.09-0.08-0.14-0.19-0.14-0.33V9.38c0-0.15,0.04-0.27,0.13-0.36c0.09-0.09,0.21-0.14,0.36-0.14
			c0.15,0,0.27,0.05,0.36,0.14c0.09,0.09,0.13,0.21,0.13,0.36v7.08h3.83c0.14,0,0.25,0.04,0.33,0.11c0.08,0.07,0.12,0.17,0.12,0.31
			c0,0.13-0.04,0.24-0.12,0.31c-0.08,0.07-0.19,0.11-0.33,0.11h-4.32C96.67,17.3,96.56,17.26,96.47,17.17z"/>
		<path class="st2" d="M102.89,17.17c-0.09-0.08-0.14-0.19-0.14-0.33V9.38c0-0.15,0.04-0.27,0.13-0.36
			c0.09-0.09,0.21-0.14,0.36-0.14c0.15,0,0.27,0.05,0.36,0.14c0.09,0.09,0.13,0.21,0.13,0.36v7.08h3.83c0.14,0,0.25,0.04,0.33,0.11
			c0.08,0.07,0.12,0.17,0.12,0.31c0,0.13-0.04,0.24-0.12,0.31c-0.08,0.07-0.19,0.11-0.33,0.11h-4.32
			C103.09,17.3,102.98,17.26,102.89,17.17z"/>
	</g>
</g>
<g id="logo">
	<g>
		<path class="st3" d="M4.88,22.63c2.63-1.09,4.97-2.58,6.92-4.36c0.47,0.35,0.97,0.69,1.48,1.01C10.82,20.83,7.97,21.99,4.88,22.63
			z"/>
		<path class="st4" d="M4.03,22.32c-0.02-0.05-0.04-0.1-0.05-0.15c-0.18-0.74-0.1-1.43,0.23-2.12c0.29-0.62,0.63-1.22,1.05-1.77
			c0.47-0.63,0.94-1.26,1.42-1.88c0.42-0.52,0.86-1.02,1.3-1.54c0.48-0.56,0.97-1.11,1.43-1.69c0.62-0.76,1.23-1.53,1.82-2.32
			c0.58-0.79,1.1-1.62,1.49-2.52c0.34-0.78,0.57-1.59,0.49-2.46c0-0.02,0-0.03,0-0.06c0.79-0.07,1.56-0.09,2.35-0.04
			c0,0.27,0,0.52-0.01,0.77c-0.03,0.68-0.05,1.37-0.09,2.05c-0.04,0.71-0.09,1.41-0.16,2.11c-0.07,0.76-0.13,1.52-0.24,2.28
			c-0.17,1.26-0.34,2.52-0.56,3.77c-0.22,1.25-0.49,2.49-0.77,3.73c-0.26,1.13-0.58,2.25-1,3.34c-0.27,0.7-0.6,1.39-0.9,2.08
			c-0.02,0.05-0.04,0.08-0.07,0.1c0.14,0.02,0.27,0.03,0.41,0.04c0.53-0.81,0.92-1.66,1.24-2.53c0.31-0.84,0.6-1.69,0.85-2.56
			c0.24-0.82,0.45-1.65,0.64-2.48c0.21-0.9,0.4-1.81,0.56-2.72c0.17-0.97,0.32-1.94,0.43-2.92c0.14-1.16,0.27-2.32,0.34-3.48
			c0.07-1.12,0.07-2.24,0.1-3.36c0-0.05,0-0.1,0-0.15c0.67,0.07,1.33,0.19,1.97,0.37c0.12,0.03,0.24,0.07,0.36,0.1
			c0.07,0.02,0.09,0.05,0.09,0.12c0.04,0.45,0.04,0.91,0.13,1.36c0.12,0.62,0.27,1.23,0.46,1.83c0.22,0.69,0.49,1.37,0.75,2.05
			c0.19,0.48,0.41,0.95,0.59,1.44c0.36,0.93,0.71,1.86,1.05,2.8c0.34,0.95,0.64,1.9,0.81,2.9c0.12,0.72,0.17,1.45,0.08,2.18
			c-0.06,0.49-0.24,0.94-0.5,1.36c-0.15,0.23-0.3,0.47-0.48,0.68c0.37-0.31,0.72-0.63,1.04-0.97c0.09-0.22,0.17-0.42,0.26-0.62
			c0.19-0.45,0.24-0.92,0.25-1.4c0.03-0.98-0.17-1.94-0.41-2.88c-0.25-0.99-0.55-1.97-0.9-2.93c-0.31-0.85-0.66-1.68-0.98-2.52
			c-0.3-0.79-0.59-1.57-0.86-2.37c-0.28-0.84-0.47-1.69-0.52-2.58c0-0.04,0-0.09,0-0.15c0.22,0.08,0.42,0.16,0.61,0.24
			c0.9,0.38,1.76,0.86,2.55,1.44c0.75,0.55,1.42,1.17,2,1.89c0.29,0.36,0.56,0.73,0.8,1.12c0.34,0.55,0.63,1.13,0.82,1.76
			c0.01,0.03,0.02,0.06,0.02,0.09c0.01-0.5-0.02-1-0.07-1.5c-0.17-0.34-0.33-0.68-0.52-1.01c-0.17-0.29-0.36-0.57-0.56-0.84
			c-0.46-0.62-0.99-1.18-1.58-1.69c-0.55-0.47-1.13-0.88-1.75-1.25c-0.61-0.36-1.24-0.67-1.9-0.94c-0.12-0.05-0.25-0.09-0.39-0.14
			c0.11-0.65,0.26-1.28,0.72-1.77c0.34-0.36,0.77-0.54,1.27-0.54c0.25,0,0.51,0.02,0.75,0.09c0.01,0,0.02,0.01,0.03,0.01
			c-0.22-0.21-0.44-0.42-0.67-0.61c-0.26,0.01-0.53,0-0.79,0.05c-0.52,0.09-0.94,0.35-1.28,0.75c-0.41,0.48-0.62,1.06-0.75,1.67
			c-0.01,0.03-0.02,0.06-0.02,0.06c-0.84-0.17-1.68-0.34-2.54-0.51c-0.07-1.63-0.25-3.28-0.74-4.89C15.42,0.05,15.26,0.02,15.11,0
			c0.01,0.02,0.02,0.05,0.03,0.09c0.08,0.52,0.19,1.03,0.25,1.55c0.08,0.76,0.12,1.52,0.16,2.29c0.02,0.34,0.01,0.68,0.02,1.02
			c-0.31-0.01-0.61-0.03-0.91-0.02C14.14,4.94,13.62,4.97,13.11,5c-0.08,0.01-0.12-0.01-0.16-0.09c-0.21-0.52-0.52-0.98-0.9-1.38
			c-0.91-0.97-2.02-1.57-3.32-1.82C8.05,1.57,7.37,1.56,6.69,1.68C6.64,1.68,6.59,1.7,6.55,1.71C6.32,1.84,6.09,1.99,5.87,2.14
			C5.79,2.19,5.71,2.25,5.63,2.3C5.8,2.25,5.99,2.23,6.17,2.2c0.69-0.09,1.38-0.04,2.07,0.09c0.75,0.15,1.45,0.4,2.11,0.79
			c0.49,0.29,0.94,0.64,1.31,1.07c0.24,0.28,0.43,0.59,0.59,0.95c-0.25,0.05-0.49,0.08-0.72,0.13c-0.66,0.16-1.32,0.32-1.97,0.51
			C8.65,6,7.77,6.36,6.93,6.78C6.2,7.15,5.47,7.55,4.78,7.98C4.08,8.41,3.41,8.87,2.76,9.36C2.17,9.8,1.62,10.3,1.06,10.78
			c-0.29,0.25-0.56,0.52-0.84,0.78c0,0-0.01,0-0.01,0.01c-0.03,0.23-0.04,0.47-0.06,0.7c0.02-0.02,0.04-0.05,0.07-0.07
			c0.62-0.51,1.22-1.04,1.85-1.52c0.74-0.56,1.51-1.1,2.29-1.62C4.88,8.72,5.43,8.4,5.98,8.1c0.51-0.28,1.03-0.54,1.57-0.76
			c0.7-0.29,1.4-0.56,2.12-0.8c0.89-0.3,1.8-0.49,2.73-0.62c0.02,0,0.04,0,0.07,0c0.05,0.32,0.01,0.64-0.04,0.94
			c-0.11,0.62-0.36,1.19-0.65,1.74c-0.39,0.75-0.84,1.46-1.35,2.14c-0.67,0.89-1.36,1.76-2.06,2.62c-0.62,0.77-1.26,1.52-1.88,2.29
			c-0.51,0.64-1,1.29-1.46,1.97c-0.35,0.51-0.65,1.05-0.95,1.58c-0.28,0.5-0.49,1.02-0.59,1.59c-0.05,0.31-0.06,0.62-0.01,0.93
			c0,0,0,0.01,0,0.02C3.66,21.94,3.84,22.13,4.03,22.32z"/>
		<g>
			<path class="st5" d="M21.68,5.03l-0.12,0.12c0.09,5.62-3.18,10.77-8.33,14.01c-5.14-3.24-8.41-8.39-8.33-14.01L4.78,5.03
				c-4.66,4.66-4.66,12.22,0,16.88c2.31,2.31,5.33,3.48,8.36,3.49c0.03,0,0.06,0,0.09,0c0.03,0,0.06,0,0.09,0
				c3.03-0.02,6.05-1.18,8.36-3.49C26.35,17.25,26.35,9.69,21.68,5.03z"/>
			<g>
				<path class="st4" d="M3.89,3.5l0.14,0.14c-0.14,9.1,7.64,17.1,18.23,19.05c-5.21,4.79-13.32,4.65-18.37-0.4
					C-1.3,17.1-1.3,8.69,3.89,3.5z"/>
				<path class="st6" d="M22.71,3.56L22.57,3.7c0.14,9.1-7.64,17.1-18.23,19.05c5.21,4.79,13.32,4.65,18.37-0.4
					C27.9,17.16,27.9,8.75,22.71,3.56z"/>
			</g>
		</g>
	</g>
</g>
</svg>
