<svg xmlns="http://www.w3.org/2000/svg" width="110" height="32" viewBox="0 0 110 32">
    <path fill="#342838" d="M10.21 30.53A10.22 10.22 0 0 1 0 20.32v-9a2.42 2.42 0 1 1 4.83 0v9a5.38 5.38 0 0 0 10.75 0v-9a2.42 2.42 0 1 1 4.83 0v9a10.21 10.21 0 0 1-10.2 10.21zM35.9 20.2v-9a5.39 5.39 0 0 1 5.37-5.38 2.42 2.42 0 1 0 0-4.83 10.23 10.23 0 0 0-10.21 10.22v9a2.42 2.42 0 0 0 4.84 0zm5.37-10.82a2.43 2.43 0 0 0-2.42 2.41v9a5.37 5.37 0 1 1-10.74 0v-9.58a10.21 10.21 0 0 0-20.42 0v9a2.42 2.42 0 0 0 4.84 0v-9a5.37 5.37 0 1 1 10.74 0v9.58a10.21 10.21 0 0 0 20.42 0v-9a2.43 2.43 0 0 0-2.42-2.41zM61.37 18.43h-4.22v4.36H55V12.12h6.9v1.78h-4.75v2.76h4.22zM69.87 21h4.66v1.77h-6.86V12.12h2.2zM88.58 17.7a6.44 6.44 0 0 1-.58 2.76 4.15 4.15 0 0 1-1.6 1.83 4.38 4.38 0 0 1-2.37.64 4.47 4.47 0 0 1-2.37-.63 4.33 4.33 0 0 1-1.61-1.82 6.36 6.36 0 0 1-.58-2.72v-.53a6.34 6.34 0 0 1 .57-2.77 4.19 4.19 0 0 1 1.6-1.84 4.71 4.71 0 0 1 4.74 0A4.21 4.21 0 0 1 88 14.46a6.48 6.48 0 0 1 .56 2.76zm-2.22-.49a4.53 4.53 0 0 0-.6-2.55 2.12 2.12 0 0 0-3.42 0 4.43 4.43 0 0 0-.61 2.53v.52a4.53 4.53 0 0 0 .6 2.53 2.1 2.1 0 0 0 3.43 0 4.58 4.58 0 0 0 .6-2.53zM103 19.71l1.43-7.59h2.19l-2.36 10.67H102l-1.73-7.14-1.74 7.14h-2.18L94 12.12h2.19l1.45 7.58 1.76-7.58h1.86z"/>
</svg>
